HIERARCHY
ROOT root
{
	OFFSET 0.000000 0.000000 0.000000
	CHANNELS 6 Xposition Yposition Zposition Zrotation Yrotation Xrotation
	JOINT lhip
	{
		OFFSET 0.058581 -0.082280 -0.017664
		CHANNELS 3 Zrotation Yrotation Xrotation
		JOINT lknee
		{
			OFFSET 0.043451 -0.386469 0.008037
			CHANNELS 3 Zrotation Yrotation Xrotation
			JOINT lankle
			{
				OFFSET -0.014790 -0.426874 -0.037428
				CHANNELS 3 Zrotation Yrotation Xrotation
				JOINT ltoe
				{
					OFFSET 0.041054 -0.060286 0.122042
					CHANNELS 3 Zrotation Yrotation Xrotation
					End Site
					{
						OFFSET 0.000000 0.000000 0.000000
					}
				}
			}
		}
	}
	JOINT rhip
	{
		OFFSET -0.060310 -0.090513 -0.013543
		CHANNELS 3 Zrotation Yrotation Xrotation
		JOINT rknee
		{
			OFFSET -0.043257 -0.383688 -0.004843
			CHANNELS 3 Zrotation Yrotation Xrotation
			JOINT rankle
			{
				OFFSET 0.019056 -0.420046 -0.034562
				CHANNELS 3 Zrotation Yrotation Xrotation
				JOINT rtoe
				{
					OFFSET -0.034840 -0.062106 0.130323
					CHANNELS 3 Zrotation Yrotation Xrotation
					End Site
					{
						OFFSET 0.000000 0.000000 0.000000
					}
				}
			}
		}
	}
	JOINT lowerback
	{
		OFFSET 0.004439 0.124404 -0.038385
		CHANNELS 3 Zrotation Yrotation Xrotation
		JOINT upperback
		{
			OFFSET 0.004488 0.137956 0.026820
			CHANNELS 3 Zrotation Yrotation Xrotation
			JOINT chest
			{
				OFFSET -0.002265 0.056032 0.002855
				CHANNELS 3 Zrotation Yrotation Xrotation
				JOINT lowerneck
				{
					OFFSET -0.013390 0.211636 -0.033468
					CHANNELS 3 Zrotation Yrotation Xrotation
					JOINT upperneck
					{
						OFFSET 0.010113 0.088937 0.050410
						CHANNELS 3 Zrotation Yrotation Xrotation
						End Site
						{
							OFFSET 0.000000 0.000000 0.000000
						}
					}
				}
				JOINT lclavicle
				{
					OFFSET 0.071702 0.114000 -0.018898
					CHANNELS 3 Zrotation Yrotation Xrotation
					JOINT lshoulder
					{
						OFFSET 0.122921 0.045205 -0.019046
						CHANNELS 3 Zrotation Yrotation Xrotation
						JOINT lelbow
						{
							OFFSET 0.255332 -0.015649 -0.022946
							CHANNELS 3 Zrotation Yrotation Xrotation
							JOINT lwrist
							{
								OFFSET 0.265709 0.012698 -0.007375
								CHANNELS 3 Zrotation Yrotation Xrotation
								End Site
								{
									OFFSET 0.000000 0.000000 0.000000
								}
							}
						}
					}
				}
				JOINT rclavicle
				{
					OFFSET -0.082954 0.112472 -0.023707
					CHANNELS 3 Zrotation Yrotation Xrotation
					JOINT rshoulder
					{
						OFFSET -0.113228 0.046853 -0.008472
						CHANNELS 3 Zrotation Yrotation Xrotation
						JOINT relbow
						{
							OFFSET -0.260127 -0.014369 -0.031269
							CHANNELS 3 Zrotation Yrotation Xrotation
							JOINT rwrist
							{
								OFFSET -0.269108 0.006794 -0.006027
								CHANNELS 3 Zrotation Yrotation Xrotation
								End Site
								{
									OFFSET 0.000000 0.000000 0.000000
								}
							}
						}
					}
				}
			}
		}
	}
}
MOTION
Frames: 16
Frame Time: 0.033333
-0.053295 0.541725 0.903825 -5.151666 -2.405502 93.128879 17.867730 10.452415 -22.645585 -8.366029 5.281895 36.861309 -1.095154 4.093669 -23.392715 0.000000 -0.000000 0.000000 -18.158907 -11.136829 -34.710632 0.031916 -9.655145 51.192451 7.920146 -3.210647 -17.862319 0.000000 -0.000000 0.000000 -0.461513 -0.107912 30.037191 3.368560 -0.632278 1.954327 0.429592 -0.476133 -2.226189 -4.072142 7.143154 -16.535187 -4.765890 -7.822889 11.916038 -31.671271 -9.335432 4.106451 -44.078299 -13.922704 18.626065 -23.824508 -66.269050 43.217325 -0.807950 -14.101490 -7.513786 37.515749 10.818148 6.340002 37.066421 14.666681 7.906394 -35.180376 49.263860 -43.072557 1.388082 10.364066 -24.354763 
-0.051944 0.544190 0.903147 -2.168817 -2.657268 93.345167 17.144886 8.942549 -24.584168 -8.586050 4.460703 37.291489 -0.843945 4.076441 -23.083481 0.000000 -0.000000 0.000000 -18.863355 -11.613924 -34.322315 -0.577241 -10.480585 51.758166 8.128616 -4.556470 -18.273056 0.000000 -0.000000 0.000000 -0.445682 0.387906 31.037790 3.701711 -0.886456 0.418477 0.534505 -0.495188 -1.899789 -4.509327 8.435998 -16.574861 -5.084927 -7.065430 12.625740 -30.673330 -9.406646 3.533969 -43.979175 -15.559460 18.810822 -24.944638 -67.362606 44.737066 0.118141 -14.578756 -7.733433 37.563731 9.713491 5.770454 38.154770 13.300461 8.743023 -35.752897 49.325579 -43.797553 0.419312 10.585318 -25.043811 
-0.050150 0.543356 0.902003 0.163526 -2.898434 93.100306 16.506398 8.529054 -25.304137 -9.012563 3.486328 37.397314 -0.532569 3.648459 -23.026396 0.000000 -0.000000 0.000000 -19.406268 -11.931290 -33.475021 -1.500143 -10.861390 52.463757 8.309128 -5.266745 -18.756505 0.000000 -0.000000 0.000000 -0.165853 1.116602 31.604034 3.508157 -0.706508 0.287810 0.478534 -0.412595 -2.036952 -4.794733 8.889789 -16.131310 -4.512019 -6.832024 12.455282 -30.340749 -10.155599 3.269652 -42.989761 -16.615025 18.504487 -25.437865 -68.942711 45.160149 1.477759 -14.379106 -7.838200 37.830392 9.361345 5.866283 38.717428 11.324165 8.754470 -37.004607 49.587395 -45.068779 0.008256 10.223878 -25.553912 
-0.047834 0.542005 0.900467 2.469303 -3.129295 92.766363 15.808201 8.516275 -25.945030 -9.456260 2.372601 37.426965 -0.330019 2.905839 -22.614932 0.000000 -0.000000 0.000000 -19.865643 -12.372265 -32.490728 -2.314806 -10.921670 53.007828 8.426692 -5.999000 -18.968258 0.000000 -0.000000 0.000000 0.223772 1.466271 31.564045 3.073437 -0.422388 1.042807 0.403085 -0.222413 -1.899869 -5.396987 8.423832 -15.655249 -3.797200 -6.552544 11.200047 -30.128182 -11.424573 3.142102 -41.854540 -17.637449 17.997436 -24.021974 -70.570059 43.300430 3.820473 -14.038377 -8.480800 37.573362 9.729393 6.186094 39.431981 9.900218 8.375308 -38.156791 49.592576 -46.222921 -0.208727 10.295300 -25.812494 
-0.046387 0.542109 0.899324 5.031810 -3.465338 92.575955 15.085250 8.146407 -26.888853 -10.054680 1.354762 37.371537 -0.380767 2.280575 -22.102886 0.000000 -0.000000 0.000000 -20.321640 -12.795853 -31.671110 -3.087930 -11.031768 53.518971 8.540530 -7.056714 -19.297376 0.000000 -0.000000 0.000000 0.442678 1.951085 32.449168 2.832222 -0.397849 0.500188 0.434602 -0.219302 -1.741312 -5.634683 7.923561 -15.683713 -3.322771 -6.718173 10.813645 -29.805086 -12.019183 2.935929 -41.145254 -18.756486 17.329655 -21.913028 -71.645204 40.971835 5.185376 -13.715405 -9.348535 37.186961 9.692138 6.067656 39.895686 8.909585 8.501182 -38.191239 49.735230 -45.952830 -0.687833 10.435416 -25.934696 
-0.044568 0.542300 0.898259 7.251394 -3.698038 92.441403 14.614202 7.720201 -27.717743 -10.647860 0.808420 37.456860 -0.428019 1.733977 -21.957245 0.000000 -0.000000 0.000000 -20.617224 -13.154787 -31.089914 -3.926165 -11.062955 54.091990 8.628718 -7.896229 -19.542493 0.000000 -0.000000 0.000000 0.497326 2.210115 32.639069 2.758238 -0.470287 0.697901 0.557227 -0.037432 -1.462544 -5.737029 7.195389 -15.642529 -2.916001 -6.889874 10.357174 -29.908524 -12.548727 2.626400 -40.738724 -19.622881 16.738479 -17.130867 -72.639002 35.075519 7.768248 -13.170122 -10.008728 36.924139 10.149809 6.149064 39.704768 8.183233 8.540184 -38.542831 49.761214 -46.370814 -1.248393 10.150339 -25.192255 
-0.042682 0.542759 0.897431 8.614185 -3.905963 92.685605 14.299935 7.506270 -28.574394 -11.146967 0.681412 37.448761 -0.431933 1.386783 -21.566157 0.000000 -0.000000 0.000000 -20.774259 -13.170159 -31.101076 -4.491634 -10.966719 54.406236 8.592709 -8.590907 -19.587062 0.000000 -0.000000 0.000000 0.591304 2.464662 33.132231 2.501117 -0.147401 0.254025 0.604187 0.010576 -1.443736 -5.762949 6.384736 -15.665512 -2.496743 -7.390963 10.210073 -29.971695 -12.609994 2.561723 -40.732998 -20.135222 16.082349 -12.034832 -73.246228 29.035096 9.337122 -12.299605 -11.142747 36.738973 10.144050 6.011716 39.230829 7.895903 8.626309 -38.863013 50.491066 -46.068864 -1.218474 9.895171 -24.417301 
-0.040858 0.543405 0.896649 9.136695 -3.869323 93.048083 14.331757 7.512807 -29.221201 -11.350434 0.996288 37.535924 -0.402116 1.163874 -21.380065 0.000000 -0.000000 0.000000 -20.695093 -13.161548 -31.490358 -4.552096 -10.706112 54.572069 8.556434 -8.756770 -19.489365 0.000000 -0.000000 0.000000 0.706427 2.642287 33.353067 2.355412 0.176076 0.203087 0.647424 0.040475 -1.463490 -5.651914 5.291573 -15.978806 -2.153888 -8.037654 9.888851 -30.205493 -12.277608 2.359570 -40.982074 -20.348195 15.389013 -5.348641 -73.418068 21.119515 10.512419 -11.476921 -12.267770 36.483629 10.336178 5.846550 38.596938 7.991384 8.766114 -38.827187 51.110658 -45.435300 -0.957536 10.641661 -23.989311 
-0.038151 0.543231 0.896109 8.132012 -3.811945 93.329309 14.596769 7.981043 -29.085158 -11.352853 2.006367 37.597976 -0.455239 1.130744 -21.513552 0.000000 -0.000000 0.000000 -20.637716 -13.153948 -32.248020 -4.254029 -10.235247 54.518245 8.479054 -8.195005 -19.068064 0.000000 -0.000000 0.000000 0.669279 2.720696 33.336557 2.037636 0.597408 0.612913 0.590784 0.197532 -1.600245 -5.353572 3.475658 -16.195601 -1.701886 -9.570693 9.268373 -30.724149 -11.858857 2.508284 -40.684841 -19.672234 14.558069 0.613227 -73.704028 13.606493 10.273160 -10.835631 -14.171162 36.435326 10.833464 6.133343 37.887604 8.691173 8.603451 -38.924433 51.926430 -45.430631 -0.422416 10.619054 -23.043007 
-0.034810 0.543157 0.896085 5.467667 -3.709491 93.809237 14.806615 8.919264 -28.819377 -11.043212 3.181715 38.225048 -0.627302 1.680809 -22.338040 0.000000 -0.000000 0.000000 -20.276503 -13.324344 -33.750859 -3.691121 -9.312186 54.136634 8.498251 -6.886392 -18.284397 0.000000 -0.000000 0.000000 0.415980 2.771331 33.236945 1.736763 0.919421 1.000112 0.490443 0.108107 -1.926888 -4.222470 -0.155399 -16.703005 -0.761290 -14.002317 8.045906 -31.196310 -10.589219 2.621311 -40.392040 -18.392378 13.580091 6.231753 -73.577867 6.886480 9.200630 -10.871486 -15.687775 36.230988 11.548504 5.817033 37.638169 9.864268 8.857202 -37.521086 52.949352 -43.448596 0.318436 11.135676 -22.024068 
-0.030147 0.542072 0.896342 1.209094 -3.207086 94.323481 15.519512 10.266704 -28.020339 -10.623028 4.683273 39.225728 -0.691871 2.717447 -23.697690 0.000000 -0.000000 0.000000 -19.770595 -12.658634 -35.526014 -2.834095 -8.816664 53.496371 8.379618 -5.138986 -17.347783 0.000000 -0.000000 0.000000 0.055207 2.089786 33.047024 1.631595 1.230178 1.069262 0.385351 0.111182 -2.521107 -1.750981 -6.808701 -16.825217 0.898665 -20.907059 6.097200 -32.036870 -8.713556 3.311821 -40.083075 -15.885976 12.235983 12.542355 -73.177987 -0.173218 7.716176 -10.418630 -15.858604 35.528556 12.712822 5.705581 38.355079 11.256519 9.091067 -35.159877 54.265717 -40.170278 1.227700 11.320903 -21.108570 
-0.024387 0.539520 0.896313 -4.660061 -2.269029 94.869268 16.765457 11.878230 -26.656475 -9.972990 6.717305 40.618430 -0.843354 4.231880 -25.686242 0.000000 -0.000000 0.000000 -18.840250 -11.620230 -37.818785 -1.727211 -8.397691 52.677376 8.451624 -2.604181 -15.943292 0.000000 -0.000000 0.000000 -0.244929 0.978275 32.517629 1.885654 1.377988 1.113735 0.313136 -0.014794 -2.942556 1.320831 -14.637076 -16.526331 3.321155 -29.597620 3.644968 -32.583328 -6.181013 3.991673 -40.285361 -12.396132 11.454458 17.046551 -72.800954 -5.009752 4.840227 -9.925654 -16.277577 34.298689 14.157540 5.077401 40.114375 13.078703 9.892150 -31.752982 55.202426 -35.774154 2.584573 10.526621 -20.179924 
-0.017400 0.537556 0.894500 -11.410651 -1.442212 95.783887 17.692793 13.539775 -25.804637 -8.874092 9.281785 43.001633 -0.767900 5.869798 -28.041237 0.000000 -0.000000 0.000000 -18.176410 -10.134735 -40.934066 -0.439333 -8.090647 51.958585 8.402653 -0.159770 -14.060238 0.000000 -0.000000 0.000000 -0.721461 -0.674061 31.998583 2.530097 1.198428 0.228394 0.414431 -0.115488 -3.120686 4.517877 -23.115544 -15.728667 6.159733 -37.430775 0.973461 -32.586416 -3.345028 5.289676 -41.114390 -8.357288 11.026980 17.552934 -72.883064 -4.989316 2.361380 -9.829342 -15.860732 32.536234 15.587898 4.517693 42.733163 15.130384 10.665623 -27.154754 56.513139 -29.679807 4.049011 10.528740 -19.287201 
-0.010955 0.534574 0.889875 -18.809771 -0.191674 97.339081 19.032990 16.022892 -25.459380 -7.765117 12.266521 45.884315 -0.874487 7.397379 -30.564566 0.000000 -0.000000 0.000000 -16.883151 -8.459392 -45.188555 1.111398 -7.489959 51.602410 8.541110 2.214111 -12.529268 0.000000 -0.000000 0.000000 -1.365179 -2.901071 31.742201 3.854623 1.043594 -1.083545 0.943148 -0.106732 -3.685981 7.907121 -28.441573 -15.830144 7.565365 -42.717293 -0.675097 -32.104617 0.254445 6.369783 -42.278661 -3.964299 11.410415 10.021456 -74.439905 4.636114 0.254006 -9.910075 -14.327749 30.728544 16.116716 3.601426 45.530280 17.577451 12.414319 -20.179614 58.140568 -21.242426 5.032831 10.128144 -19.226485 
-0.004813 0.533868 0.883065 -25.716609 0.942160 98.992287 20.124372 18.353832 -25.711416 -6.332154 15.287152 49.265926 -1.033154 8.675666 -32.931349 0.000000 -0.000000 0.000000 -15.653526 -6.814203 -49.744516 2.397536 -6.895485 51.673431 8.901284 4.460143 -11.173898 0.000000 -0.000000 0.000000 -1.692452 -4.913247 31.314455 5.542412 0.491699 -1.659198 1.745669 -0.416436 -3.860045 10.564230 -30.238488 -16.402264 8.323992 -44.786183 -1.917665 -30.814293 1.796031 7.962491 -43.221390 -0.170313 13.047886 -5.015273 -76.044924 21.836477 0.379899 -10.330482 -11.871858 29.433536 16.986050 3.239410 47.432520 20.348793 13.962639 -13.622953 59.160662 -13.690238 5.633965 10.157103 -19.202950 
0.000615 0.530871 0.875237 -31.438431 1.594953 100.430611 20.484586 20.123184 -25.964368 -4.793068 17.777627 52.427554 -1.218784 9.754384 -34.942486 0.000000 -0.000000 0.000000 -15.482237 -5.562545 -53.287760 3.606825 -6.835760 51.481594 9.372873 6.419080 -10.407445 0.000000 -0.000000 0.000000 -1.841923 -6.945849 32.049710 7.383037 -0.601565 -2.396968 2.573077 -0.647944 -4.310288 11.977880 -29.330469 -17.404565 8.489690 -45.124084 -2.027120 -29.898429 1.952438 9.069131 -42.589481 2.924905 15.694981 -31.385062 -76.875056 49.784446 0.777614 -11.166584 -8.736785 29.029203 17.687738 3.063524 48.223774 22.303350 15.276672 -7.844790 60.847989 -7.694554 6.833375 9.926771 -19.465290 
